<svg width="16" height="20" viewBox="0 0 16 20" fill="none" xmlns="http://www.w3.org/2000/svg">
<path d="M0.5 16.8846V15.3846H2.3077V7.92307C2.3077 6.57821 2.72276 5.38911 3.55287 4.35577C4.38301 3.32244 5.44872 2.66155 6.75 2.3731V1.75002C6.75 1.40281 6.87142 1.10767 7.11425 0.864624C7.35708 0.621557 7.65195 0.500023 7.99885 0.500023C8.34575 0.500023 8.64099 0.621557 8.88457 0.864624C9.12816 1.10767 9.24995 1.40281 9.24995 1.75002V2.3731C10.5512 2.66155 11.6169 3.32244 12.4471 4.35577C13.2772 5.38911 13.6922 6.57821 13.6922 7.92307V15.3846H15.5V16.8846H0.5ZM7.99828 19.6923C7.50069 19.6923 7.0753 19.5153 6.7221 19.1613C6.3689 18.8073 6.1923 18.3817 6.1923 17.8846H9.80765C9.80765 18.3833 9.63048 18.8093 9.27615 19.1625C8.92182 19.5157 8.49586 19.6923 7.99828 19.6923ZM3.80765 15.3846H12.1923V7.92307C12.1923 6.76537 11.783 5.77723 10.9644 4.95865C10.1458 4.14005 9.15767 3.73075 7.99997 3.73075C6.84227 3.73075 5.85413 4.14005 5.03555 4.95865C4.21695 5.77723 3.80765 6.76537 3.80765 7.92307V15.3846Z" fill="#637381"/>
</svg>
