<svg width="18" height="18" viewBox="0 0 18 18" fill="none" xmlns="http://www.w3.org/2000/svg">
<path d="M16.5117 17.5769L10.2309 11.2961C9.73094 11.7089 9.15594 12.032 8.50594 12.2653C7.85594 12.4987 7.18351 12.6153 6.48864 12.6153C4.77947 12.6153 3.33296 12.0236 2.14909 10.84C0.965224 9.65643 0.373291 8.21029 0.373291 6.50157C0.373291 4.79284 0.965075 3.34616 2.14864 2.16154C3.33221 0.976943 4.77836 0.384644 6.48709 0.384644C8.19581 0.384644 9.64247 0.976578 10.8271 2.16044C12.0117 3.34431 12.604 4.79083 12.604 6.49999C12.604 7.21409 12.4841 7.89614 12.2444 8.54614C12.0046 9.19614 11.6848 9.76153 11.2848 10.2423L17.5655 16.5231L16.5117 17.5769ZM6.48864 11.1154C7.77711 11.1154 8.86846 10.6683 9.76269 9.77404C10.6569 8.87981 11.104 7.78846 11.104 6.49999C11.104 5.21153 10.6569 4.12018 9.76269 3.22594C8.86846 2.33171 7.77711 1.88459 6.48864 1.88459C5.20017 1.88459 4.10882 2.33171 3.21459 3.22594C2.32037 4.12018 1.87327 5.21153 1.87327 6.49999C1.87327 7.78846 2.32037 8.87981 3.21459 9.77404C4.10882 10.6683 5.20017 11.1154 6.48864 11.1154Z" fill="#637381"/>
</svg>
