<svg width="24" height="24" viewBox="0 0 24 24" fill="none" xmlns="http://www.w3.org/2000/svg">
<mask id="mask0_1_5165" style="mask-type:alpha" maskUnits="userSpaceOnUse" x="0" y="0" width="24" height="24">
<rect width="24" height="24" fill="#D9D9D9"/>
</mask>
<g mask="url(#mask0_1_5165)">
<path d="M1.38477 20.2307V18.7308H22.6155V20.2307H1.38477ZM4.30784 17.7308C3.80271 17.7308 3.37514 17.5558 3.02514 17.2058C2.67514 16.8558 2.50014 16.4282 2.50014 15.9231V5.53851C2.50014 5.03339 2.67514 4.60583 3.02514 4.25583C3.37514 3.90584 3.80271 3.73083 4.30784 3.73083H19.6924C20.1975 3.73083 20.6251 3.90584 20.9751 4.25583C21.3251 4.60583 21.5001 5.03339 21.5001 5.53851V15.9231C21.5001 16.4282 21.3251 16.8558 20.9751 17.2058C20.6251 17.5558 20.1975 17.7308 19.6924 17.7308H4.30784ZM4.30784 16.2308H19.6924C19.7693 16.2308 19.8398 16.1987 19.904 16.1346C19.9681 16.0705 20.0001 16 20.0001 15.9231V5.53851C20.0001 5.46158 19.9681 5.39106 19.904 5.32696C19.8398 5.26284 19.7693 5.23079 19.6924 5.23079H4.30784C4.23091 5.23079 4.16038 5.26284 4.09627 5.32696C4.03217 5.39106 4.00012 5.46158 4.00012 5.53851V15.9231C4.00012 16 4.03217 16.0705 4.09627 16.1346C4.16038 16.1987 4.23091 16.2308 4.30784 16.2308Z" fill="#637381"/>
</g>
</svg>
